<svg xmlns="http://www.w3.org/2000/svg" viewBox="0 0 815.79 879.28"><defs><style>.cls-1{fill:#7f7f7f;stroke:#7f7f7f;stroke-miterlimit:10;stroke-width:15px;}</style></defs><g id="Calque_2" data-name="Calque 2"><g id="Calque_1-2" data-name="Calque 1"><path class="cls-1" d="M579.51,679.66c-8.43-9.06-6.47-22.11,4.37-29.16s40.69-21.4,49.12-12.34L803.67,824.23c8.15,10.18,5,30.48-5.63,39.07-11.85,8.59-36.14,12.28-44.57,3.22l-174-186.86Zm-187.45,97C179.67,776.63,7.5,604.46,7.5,392.06S179.67,7.5,392.06,7.5,776.63,179.67,776.63,392.06,604.46,776.63,392.06,776.63Zm-5.41-63.93c177.08,0,320.64-143.56,320.64-320.64S563.73,71.42,386.65,71.42,66,215,66,392.06,209.58,712.7,386.65,712.7Z"/></g></g></svg>